<?xml version="1.0" encoding="utf-8"?>
<svg width="28px" height="28px" viewbox="0 0 28 28" version="1.1" xmlns:xlink="http://www.w3.org/1999/xlink" xmlns="http://www.w3.org/2000/svg">
  <g id="Page-1">
    <path d="M13.8478 1.2043C6.88313 1.2043 1.21739 6.80912 1.21739 13.6989C1.21739 20.5887 6.88313 26.1935 13.8478 26.1935C20.8125 26.1935 26.4795 20.5887 26.4795 13.6989C26.4795 6.80912 20.8125 1.2043 13.8478 1.2043M13.8478 27.3979C6.21235 27.3979 0 21.2523 0 13.6989C0 6.14555 6.21235 0 13.8478 0C21.4845 0 27.6969 6.14555 27.6969 13.6989C27.6969 21.2523 21.4845 27.3979 13.8478 27.3979" transform="translate(0 0.00024414062)" id="Fill-1" fill="#007397" fill-rule="evenodd" stroke="none" />
    <path d="M8.2673 1.2043C4.38017 1.2043 1.21739 6.80912 1.21739 13.6989C1.21739 20.5887 4.38017 26.1935 8.2673 26.1935C12.1532 26.1935 15.3148 20.5887 15.3148 13.6989C15.3148 6.80912 12.1532 1.2043 8.2673 1.2043M8.2673 27.3979C3.70817 27.3979 0 21.2523 0 13.6989C0 6.14555 3.70817 0 8.2673 0C12.8252 0 16.5322 6.14555 16.5322 13.6989C16.5322 21.2523 12.8252 27.3979 8.2673 27.3979" transform="translate(5.5805664 0.00024414062)" id="Fill-3" fill="#007397" fill-rule="evenodd" stroke="none" />
    <path d="M1.21739 1.21875L1.21739 26.1803C7.90087 25.8648 13.2403 20.3876 13.2403 13.6989C13.2403 7.01144 7.90087 1.53428 1.21739 1.21875M0.608696 27.3979C0.272696 27.3979 0 27.1293 0 26.7957L0 0.602151C0 0.269763 0.272696 0 0.608696 0C8.24539 0 14.4577 6.14555 14.4577 13.6989C14.4577 21.2523 8.24539 27.3979 0.608696 27.3979" transform="translate(13.239014 0)" id="Fill-5" fill="#007397" fill-rule="evenodd" stroke="none" />
    <path d="M1.8967 9.23338L25.7965 9.23338C26.2494 7.9231 26.4795 6.57428 26.4795 5.21944C26.4795 3.8646 26.2494 2.51579 25.7953 1.2043L1.89913 1.2043C1.44626 2.51217 1.21739 3.86099 1.21739 5.21944C1.21739 6.57548 1.44504 7.9243 1.8967 9.23338M26.2238 10.4377L1.46817 10.4377C1.21496 10.4377 0.987304 10.2823 0.898435 10.0475C0.301913 8.48069 0 6.85609 0 5.21944C0 3.57918 0.30313 1.95458 0.902087 0.388989C0.992174 0.154151 1.21861 0 1.47183 0L26.2238 0C26.477 0 26.7035 0.155355 26.7936 0.388989C27.3925 1.9594 27.6969 3.5852 27.6969 5.21944C27.6969 6.85488 27.3925 8.47948 26.7936 10.0487C26.7035 10.2823 26.477 10.4377 26.2238 10.4377" transform="translate(0 8.479736)" id="Fill-8" fill="#007397" fill-rule="evenodd" stroke="none" />
  </g>
</svg>