<?xml version="1.0" encoding="utf-8"?>
<svg width="172px" height="20px" viewbox="0 0 172 20" version="1.1" xmlns:xlink="http://www.w3.org/1999/xlink" xmlns="http://www.w3.org/2000/svg">
  <path d="M9.76567 0C11.306 0 12.656 0.208912 13.8157 0.626741C14.9754 1.04457 15.8664 1.63417 16.4888 2.39554C17.1112 3.15692 17.4224 4.04363 17.4224 5.05571C17.4224 6.03993 17.1291 6.922 16.5425 7.70195C15.956 8.4819 15.1657 9.02507 14.1716 9.33148C15.3269 9.60074 16.2537 10.195 16.9522 11.1142C17.6507 12.0334 18 13.1244 18 14.3872C18 15.5107 17.6776 16.4995 17.0328 17.3538C16.3881 18.208 15.4836 18.8626 14.3194 19.3175C13.1552 19.7725 11.794 20 10.2358 20L0 20L0 0L9.76567 0ZM7 8L9.71429 8C10.1032 8 10.4147 7.90686 10.6488 7.72059C10.8829 7.53431 11 7.28758 11 6.98039C11 6.68627 10.8829 6.44935 10.6488 6.26961C10.4147 6.08987 10.1032 6 9.71429 6L7 6L7 8ZM5 15L8.66756 15C9.37534 15 9.94102 14.8539 10.3646 14.5616C10.7882 14.2694 11 13.8904 11 13.4247C11 12.9954 10.7855 12.6507 10.3566 12.3904C9.92761 12.1301 9.36461 12 8.66756 12L5 12L5 15ZM42 11.3736C42 13.0952 41.6139 14.6085 40.8418 15.9135C40.0697 17.2184 38.9735 18.2257 37.5533 18.9354C36.1332 19.6451 34.4717 20 32.5689 20C30.6662 20 28.9909 19.6451 27.5432 18.9354C26.0954 18.2257 24.9763 17.2184 24.1858 15.9135C23.3953 14.6085 23 13.0952 23 11.3736L23 0L29.5493 0L29.5493 11.3736C29.5493 12.3077 29.8458 13.0746 30.4387 13.6745C31.0316 14.2743 31.7508 14.5742 32.5965 14.5742C33.4238 14.5742 34.1063 14.2834 34.6441 13.7019C35.1818 13.1204 35.4507 12.3443 35.4507 11.3736L35.4507 0L42 0L42 11.3736ZM57.5667 0C59.078 0 60.5847 0.208615 62.087 0.62585C63.5892 1.04309 64.8935 1.60544 66 2.31293L63.6792 7.21088C62.5907 6.61224 61.4056 6.08163 60.1237 5.61905C58.8418 5.15646 57.8051 4.92517 57.0135 4.92517C56.2219 4.92517 55.8261 5.19728 55.8261 5.7415C55.8261 6.14966 56.0757 6.46939 56.575 6.70068C57.0742 6.93197 57.8636 7.18821 58.943 7.46939C60.3463 7.84127 61.5045 8.22222 62.4175 8.61224C63.3306 9.00227 64.1312 9.60997 64.8193 10.4354C65.5075 11.2608 65.8516 12.3628 65.8516 13.7415C65.8516 15.1383 65.4895 16.3039 64.7654 17.2381C64.0412 18.1723 63.0607 18.8662 61.8238 19.3197C60.587 19.7732 59.2129 20 57.7016 20C55.9925 20 54.2676 19.7279 52.527 19.1837C50.7863 18.6395 49.2774 17.873 48 16.8844L50.3883 12.0408C51.3688 12.8571 52.5944 13.5669 54.0652 14.1701C55.536 14.7732 56.7661 15.0748 57.7556 15.0748C58.7901 15.0748 59.3073 14.7392 59.3073 14.068C59.3073 13.6417 59.0532 13.3129 58.545 13.0816C58.0367 12.8503 57.2204 12.5941 56.096 12.3129C54.7286 11.9773 53.5862 11.6236 52.6687 11.2517C51.7511 10.8798 50.9573 10.2993 50.2871 9.5102C49.6169 8.72108 49.2819 7.66894 49.2819 6.35374C49.2819 5.07482 49.6214 3.95692 50.3006 3C50.9798 2.04308 51.9468 1.30386 53.2016 0.782313C54.4565 0.260768 55.9115 0 57.5667 0ZM71 20L71 0L78 0L78 20L71 20ZM97.5928 20L89.8975 9.79109L89.8975 20L84 20L84 0L89.4208 0L97.1434 10.2786L97.1434 0L103 0L103 20L97.5928 20ZM116.563 5.02785L116.563 7.47911L125.814 7.47911L125.814 12.493L116.563 12.493L116.563 14.9861L127 14.9861L127 20L110 20L110 0L126.752 0L126.752 5.02785L116.563 5.02785ZM140.567 0C142.078 0 143.585 0.208615 145.087 0.62585C146.589 1.04309 147.894 1.60544 149 2.31293L146.679 7.21088C145.591 6.61224 144.406 6.08163 143.124 5.61905C141.842 5.15646 140.805 4.92517 140.013 4.92517C139.222 4.92517 138.826 5.19728 138.826 5.7415C138.826 6.14966 139.076 6.46939 139.575 6.70068C140.074 6.93197 140.864 7.18821 141.943 7.46939C143.346 7.84127 144.504 8.22222 145.418 8.61224C146.331 9.00227 147.131 9.60997 147.819 10.4354C148.508 11.2608 148.852 12.3628 148.852 13.7415C148.852 15.1383 148.49 16.3039 147.765 17.2381C147.041 18.1723 146.061 18.8662 144.824 19.3197C143.587 19.7732 142.213 20 140.702 20C138.992 20 137.268 19.7279 135.527 19.1837C133.786 18.6395 132.277 17.873 131 16.8844L133.388 12.0408C134.369 12.8571 135.594 13.5669 137.065 14.1701C138.536 14.7732 139.766 15.0748 140.756 15.0748C141.79 15.0748 142.307 14.7392 142.307 14.068C142.307 13.6417 142.053 13.3129 141.545 13.0816C141.037 12.8503 140.22 12.5941 139.096 12.3129C137.729 11.9773 136.586 11.6236 135.669 11.2517C134.751 10.8798 133.957 10.2993 133.287 9.5102C132.617 8.72108 132.282 7.66894 132.282 6.35374C132.282 5.07482 132.621 3.95692 133.301 3C133.98 2.04308 134.947 1.30386 136.202 0.782313C137.457 0.260768 138.912 0 140.567 0ZM163.567 0C165.078 0 166.585 0.208615 168.087 0.62585C169.589 1.04309 170.894 1.60544 172 2.31293L169.679 7.21088C168.591 6.61224 167.406 6.08163 166.124 5.61905C164.842 5.15646 163.805 4.92517 163.013 4.92517C162.222 4.92517 161.826 5.19728 161.826 5.7415C161.826 6.14966 162.076 6.46939 162.575 6.70068C163.074 6.93197 163.864 7.18821 164.943 7.46939C166.346 7.84127 167.504 8.22222 168.418 8.61224C169.331 9.00227 170.131 9.60997 170.819 10.4354C171.508 11.2608 171.852 12.3628 171.852 13.7415C171.852 15.1383 171.49 16.3039 170.765 17.2381C170.041 18.1723 169.061 18.8662 167.824 19.3197C166.587 19.7732 165.213 20 163.702 20C161.992 20 160.268 19.7279 158.527 19.1837C156.786 18.6395 155.277 17.873 154 16.8844L156.388 12.0408C157.369 12.8571 158.594 13.5669 160.065 14.1701C161.536 14.7732 162.766 15.0748 163.756 15.0748C164.79 15.0748 165.307 14.7392 165.307 14.068C165.307 13.6417 165.053 13.3129 164.545 13.0816C164.037 12.8503 163.22 12.5941 162.096 12.3129C160.729 11.9773 159.586 11.6236 158.669 11.2517C157.751 10.8798 156.957 10.2993 156.287 9.5102C155.617 8.72108 155.282 7.66894 155.282 6.35374C155.282 5.07482 155.621 3.95692 156.301 3C156.98 2.04308 157.947 1.30386 159.202 0.782313C160.457 0.260768 161.912 0 163.567 0Z" id="BUSINESS" fill="#007397" stroke="none" />
</svg>