<svg id="flower" xmlns="http://www.w3.org/2000/svg" width="52" height="71.5" viewBox="0 0 52 71.5">
  <defs>
    <style>
      .cls-1 {
        fill: #fff;
      }

      .cls-1, .cls-2 {
        fill-rule: evenodd;
      }

      .cls-2 {
        fill: none;
        stroke: #fff;
        stroke-width: 3px;
      }
    </style>
  </defs>
  <path class="cls-1" d="M296.914,1520.32h2.066V1557h-2.066v-36.68Z" transform="translate(-275.5 -1485.5)"/>
  <path class="cls-2" d="M285.047,1508.64a5.975,5.975,0,0,1,8.369,0,5.775,5.775,0,0,1,0,8.25,5.994,5.994,0,0,1-8.369,0A5.775,5.775,0,0,1,285.047,1508.64Zm16.739-16.51a5.994,5.994,0,0,1,8.369,0,5.787,5.787,0,0,1,0,8.26,5.994,5.994,0,0,1-8.369,0A5.785,5.785,0,0,1,301.786,1492.13Zm-10.1,24.04A5.918,5.918,0,1,1,297.6,1522,5.874,5.874,0,0,1,291.687,1516.17Zm0-23.34a5.918,5.918,0,1,1,5.917,5.84A5.874,5.874,0,0,1,291.687,1492.83Zm10.1,24.04a5.773,5.773,0,0,1,0-8.25,5.975,5.975,0,0,1,8.369,0,5.775,5.775,0,0,1,0,8.25A5.975,5.975,0,0,1,301.786,1516.87Zm-16.739-16.5a5.775,5.775,0,0,1,0-8.25,5.975,5.975,0,0,1,8.369,0,5.775,5.775,0,0,1,0,8.25A5.975,5.975,0,0,1,285.047,1500.37Zm24.381,9.95a5.831,5.831,0,1,1,5.918-5.83A5.875,5.875,0,0,1,309.428,1510.32Zm-23.672,0a5.831,5.831,0,1,1,5.918-5.83A5.875,5.875,0,0,1,285.756,1510.32Z" transform="translate(-275.5 -1485.5)"/>
  <path class="cls-2" d="M297.592,1494a10.5,10.5,0,1,1-10.646,10.5A10.574,10.574,0,0,1,297.592,1494Z" transform="translate(-275.5 -1485.5)"/>
  <path class="cls-2" d="M298.47,1543.7l-1.045-1.05,13.946-13.83,1.045,1.05Z" transform="translate(-275.5 -1485.5)"/>
  <path class="cls-2" d="M298.631,1542.12l-1.045,1.74-17.433-17.28,1.045-1.75Z" transform="translate(-275.5 -1485.5)"/>
  <path class="cls-2" d="M326,1516.95s-0.984,14.42-5.239,18.63-10.74,4.63-14.485.92-3.33-10.14.925-14.36S326,1516.95,326,1516.95Z" transform="translate(-275.5 -1485.5)"/>
  <path class="cls-2" d="M277,1523.4s0.72,10.51,3.837,13.58,7.867,3.38,10.61.67,2.439-7.39-.677-10.47S277,1523.4,277,1523.4Z" transform="translate(-275.5 -1485.5)"/>
</svg>
