<svg id="timeIcon" xmlns="http://www.w3.org/2000/svg" width="73" height="73" viewBox="0 0 73 73">
  <defs>
    <style>
      .cls-1, .cls-2 {
        fill: #030303;
        stroke: #fff;
        stroke-width: 3px;
      }

      .cls-1 {
        fill-rule: evenodd;
      }
    </style>
  </defs>
  <path class="cls-1" d="M737.921,1493.38a1.4,1.4,0,1,1-1.4,1.4A1.4,1.4,0,0,1,737.921,1493.38Zm0,60.2a1.4,1.4,0,1,1-1.4,1.4A1.4,1.4,0,0,1,737.921,1553.58Zm8.155-59.12a1.4,1.4,0,1,1-1.715.99A1.394,1.394,0,0,1,746.076,1494.46ZM730.5,1552.61a1.4,1.4,0,1,1-1.715.99A1.394,1.394,0,0,1,730.5,1552.61Zm23.18-55a1.4,1.4,0,1,1-1.913.51A1.4,1.4,0,0,1,753.675,1497.61Zm-30.1,52.13a1.4,1.4,0,1,1-1.912.51A1.4,1.4,0,0,1,723.574,1549.74Zm36.625-47.12a1.4,1.4,0,1,1-1.98,0A1.4,1.4,0,0,1,760.2,1502.62Zm-42.568,42.56a1.4,1.4,0,1,1-1.98,0A1.4,1.4,0,0,1,717.631,1545.18Zm47.574-36.04a1.4,1.4,0,1,1-1.913-.51A1.41,1.41,0,0,1,765.205,1509.14Zm-52.135,30.1a1.4,1.4,0,1,1-1.913-.51A1.41,1.41,0,0,1,713.07,1539.24Zm55.28-22.5a1.4,1.4,0,1,1-1.714-.99A1.4,1.4,0,0,1,768.35,1516.74ZM710.2,1532.32a1.4,1.4,0,1,1-1.715-.99A1.4,1.4,0,0,1,710.2,1532.32Zm59.22-7.42a1.4,1.4,0,1,1-1.4-1.4A1.4,1.4,0,0,1,769.422,1524.9Zm-60.2,0a1.4,1.4,0,1,1-1.4-1.4A1.4,1.4,0,0,1,709.222,1524.9Zm59.124,8.15a1.4,1.4,0,1,1-.99-1.71A1.4,1.4,0,0,1,768.346,1533.05ZM710.2,1517.47a1.4,1.4,0,1,1-.99-1.71A1.4,1.4,0,0,1,710.2,1517.47Zm55,23.18a1.4,1.4,0,1,1-.512-1.91A1.409,1.409,0,0,1,765.2,1540.65Zm-52.135-30.1a1.4,1.4,0,1,1-.512-1.91A1.407,1.407,0,0,1,713.061,1510.55Zm47.126,36.63a1.4,1.4,0,0,1-1.98-1.98A1.4,1.4,0,0,1,760.187,1547.18Zm-42.568-42.57a1.4,1.4,0,1,1,0-1.98A1.394,1.394,0,0,1,717.619,1504.61Zm36.041,47.57a1.4,1.4,0,1,1,.512-1.91A1.4,1.4,0,0,1,753.66,1552.18Zm-30.1-52.13a1.4,1.4,0,1,1,.512-1.91A1.405,1.405,0,0,1,723.56,1500.05Zm22.5,55.28a1.4,1.4,0,1,1,.99-1.72A1.4,1.4,0,0,1,746.059,1555.33Zm-15.581-58.15a1.4,1.4,0,1,1,.99-1.71A1.4,1.4,0,0,1,730.478,1497.18Z" transform="translate(-701.5 -1488.5)"/>
  <path class="cls-1" d="M737,1490h2v9h-2v-9Zm0,61h2v9h-2v-9Zm-34-25v-2h9v2h-9Zm61,0v-2h9v2h-9Z" transform="translate(-701.5 -1488.5)"/>
  <path class="cls-1" d="M720,1526v-2h19v2H720Zm19,0h-2v-25h2v25Z" transform="translate(-701.5 -1488.5)"/>
  <circle class="cls-2" cx="36.531" cy="36.5" r="3.5"/>
</svg>
