<svg xmlns="http://www.w3.org/2000/svg" width="18.062" height="24.72" viewBox="0 0 18.062 24.72">
  <defs>
    <style>
      .cls-1 {
        fill-rule: evenodd;
      }
    </style>
  </defs>
  <path id="telephone" class="cls-1" d="M250.617,1976.63c-1.016.76-3.894,4.88,1.492,14.21,5.674,9.83,11.073,9.42,12.156,8.75l-3.826-6.44c-0.9.53-1.666-.34-3.072-2.24-0.024-.02-2.744-4.58-2.753-4.64-0.563-1.23-1.016-2.48-.071-3.04Zm15.982,21.61a0.837,0.837,0,0,0,.292-1.15h0s-2.988-5.02-2.989-5.03a0.844,0.844,0,0,0-1.143-.29l-1.83,1.08,3.836,6.46s1.831-1.07,1.829-1.07h0Zm-9.725-16.38a0.827,0.827,0,0,0,.295-1.14h0s-3.073-5.17-3.075-5.17a0.835,0.835,0,0,0-1.143-.29l-1.83,1.08,3.921,6.6,1.831-1.07v-0.01Z" transform="translate(-248.938 -1975.16)"/>
</svg>
