<svg width="33" height="25" xmlns="http://www.w3.org/2000/svg" xmlns:xlink="http://www.w3.org/1999/xlink" xmlns:svgjs="http://svgjs.com/svgjs" viewBox="36 18 33 25"><svg width="10" height="15" xmlns="http://www.w3.org/2000/svg" xmlns:xlink="http://www.w3.org/1999/xlink" xmlns:svgjs="http://svgjs.com/svgjs" viewBox="0 0.138 10 14.724" fill="#fff" x="59" y="26"><svg xmlns="http://www.w3.org/2000/svg" xmlns:xlink="http://www.w3.org/1999/xlink" width="10" height="15" viewBox="0.716 0.879 9.059 13.339"><path paint-order="stroke fill markers" fill-rule="evenodd" d="M6.329 3.989C4.767 2.427 2.968 1.374 1.218.879A12.63 12.63 0 01.967 2.81c-.07.335-.154.677-.251 1.011C1.692 5 2.124 6.22 2.48 7.294c.383 1.178.683 2.196 1.38 3.102.195.258.44.537.718.816.733.732 1.695 1.478 2.552 2.036.837.565 1.667.942 1.834.949a.48.48 0 01.056.02c1.632-2.642.565-6.972-2.691-10.228z"/></svg></svg><svg width="13" height="12" xmlns="http://www.w3.org/2000/svg" xmlns:xlink="http://www.w3.org/1999/xlink" xmlns:svgjs="http://svgjs.com/svgjs" viewBox="0 0.102 13 11.795" fill="#fff" x="54" y="31"><svg xmlns="http://www.w3.org/2000/svg" xmlns:xlink="http://www.w3.org/1999/xlink" width="13" height="12" viewBox="0.814 0.843 11.93 10.824"><path paint-order="stroke fill markers" fill-rule="evenodd" d="M12.744 10.619c-.474-.216-.983-.516-1.562-.886a18.415 18.415 0 01-2.852-2.28 9.715 9.715 0 01-.885-1.004c-.941-1.248-1.29-2.51-1.66-3.64-.23-.697-.46-1.345-.808-1.966-.9 2.036-2.26 4.003-3.975 5.718-.063.063-.125.118-.188.181.376.51.809 1.011 1.283 1.485 3.437 3.43 8.06 4.428 10.647 2.392z"/></svg></svg><svg width="20" height="21" xmlns="http://www.w3.org/2000/svg" xmlns:xlink="http://www.w3.org/1999/xlink" xmlns:svgjs="http://svgjs.com/svgjs" viewBox="0 0.387 20 20.226" fill="#fff" x="36" y="18"><svg xmlns="http://www.w3.org/2000/svg" xmlns:xlink="http://www.w3.org/1999/xlink" width="20" height="21" viewBox="0 0.553 19.637 19.858"><path paint-order="stroke fill markers" fill-rule="evenodd" d="M1.103 20.412c.028-.007.056-.028.084-.028.237-.014 1.443-.565 2.657-1.381 1.248-.816 2.635-1.896 3.702-2.963.404-.405.76-.81 1.046-1.179 1.004-1.317 1.443-2.796 2.001-4.51.558-1.695 1.248-3.634 2.936-5.481.07-.077.153-.168.244-.265 1.36-1.353 2.872-1.855 4.197-2.364a19.746 19.746 0 001.667-.718c-1.151-.649-2.51-.97-3.968-.97-3.423 0-7.419 1.744-10.675 5-4.727 4.734-6.268 11.016-3.89 14.859z"/></svg></svg><svg width="22" height="21" xmlns="http://www.w3.org/2000/svg" xmlns:xlink="http://www.w3.org/1999/xlink" xmlns:svgjs="http://svgjs.com/svgjs" viewBox="0.603 0 20.794 21" fill="#fff" x="38" y="21"><svg xmlns="http://www.w3.org/2000/svg" width="22" height="21" viewBox="0.979 0.329 20.457 20.66"><path paint-order="stroke fill markers" fill-rule="evenodd" d="M20.447 10.048c.258-.641.467-1.275.627-1.91.21-.83.328-1.653.356-2.448.07-2.063-.474-3.94-1.68-5.361-1.026.634-2.016 1.031-2.873 1.36-1.402.522-2.427.913-3.257 1.75-.041.041-.09.097-.153.167-1.29 1.415-1.834 2.865-2.378 4.518-.537 1.638-1.039 3.48-2.412 5.285a14.56 14.56 0 01-1.29 1.458c-1.248 1.248-2.754 2.412-4.142 3.311-.837.537-1.583.97-2.266 1.29 1.304 1.025 2.963 1.52 4.79 1.52 3.396 0 7.35-1.715 10.592-4.922.028-.028.055-.056.083-.077 1.82-1.82 3.166-3.884 4.003-5.94z"/></svg></svg></svg>