<svg width="24" height="29" xmlns="http://www.w3.org/2000/svg" xmlns:xlink="http://www.w3.org/1999/xlink" xmlns:svgjs="http://svgjs.com/svgjs" viewBox="1306 15 24 29"><svg width="24" height="29" xmlns="http://www.w3.org/2000/svg" xmlns:xlink="http://www.w3.org/1999/xlink" xmlns:svgjs="http://svgjs.com/svgjs" viewBox="0.394 0 23.212 29" fill="#fff" x="1306" y="15"><svg xmlns="http://www.w3.org/2000/svg" width="24" height="29" viewBox="1 0 22.411 28"><path paint-order="stroke fill markers" fill-rule="evenodd" d="M23.406 24.204L21.802 6.15a.772.772 0 00-.767-.705h-3.298A5.536 5.536 0 0012.206 0a5.536 5.536 0 00-5.532 5.445H3.376c-.4 0-.733.304-.767.705L1.006 24.204c0 .022-.006.045-.006.068C1 26.328 2.884 28 5.203 28h14.006c2.319 0 4.202-1.672 4.202-3.728 0-.023 0-.046-.005-.068zm-11.2-22.658a3.99 3.99 0 013.985 3.9H8.22a3.99 3.99 0 013.985-3.9zm7.003 24.908H5.203c-1.455 0-2.634-.962-2.657-2.147L4.08 6.997h2.59v2.348c0 .43.343.773.773.773a.77.77 0 00.773-.773V6.997h7.976v2.348c0 .43.343.773.773.773a.77.77 0 00.773-.773V6.997h2.588l1.54 17.31c-.023 1.185-1.208 2.147-2.656 2.147z"/></svg></svg></svg>